HIERARCHY
ROOT Hips
{
  OFFSET 47.3721 84.1603 34.9771
  CHANNELS 6 Xposition Yposition Zposition Zrotation Xrotation Yrotation
  JOINT spine
  {
    OFFSET 0 6.24479 0.359107
    CHANNELS 3 Zrotation Xrotation Yrotation
    JOINT spine1
    {
      OFFSET 0 9.06941 0
      CHANNELS 3 Zrotation Xrotation Yrotation
      JOINT spine2
      {
        OFFSET 0 8.69014 0
        CHANNELS 3 Zrotation Xrotation Yrotation
        JOINT Neck
        {
          OFFSET 0 22.3112 1.06372
          CHANNELS 3 Zrotation Xrotation Yrotation
          JOINT Head
          {
            OFFSET 0 6.74081 0
            CHANNELS 3 Zrotation Xrotation Yrotation
            End Site
            {
              OFFSET 0 16.3165 -5.38097
            }
          }
        }
        JOINT RightShoulder
        {
          OFFSET -3.65916 9.38468 -0.509514
          CHANNELS 3 Zrotation Xrotation Yrotation
          JOINT RightArm
          {
            OFFSET 0 12.3089 0
            CHANNELS 3 Zrotation Xrotation Yrotation
            JOINT RightArmRoll
            {
              OFFSET 0 6.21375 0
              CHANNELS 3 Zrotation Xrotation Yrotation
              JOINT RightForeArm
              {
                OFFSET 0 18.0985 0
                CHANNELS 3 Zrotation Xrotation Yrotation
                JOINT RightForeArmRoll
                {
                  OFFSET 0 6.97279 0
                  CHANNELS 3 Zrotation Xrotation Yrotation
                  JOINT RightHand
                  {
                    OFFSET 0 13.9929 0
                    CHANNELS 3 Zrotation Xrotation Yrotation
                    End Site
                    {
                      OFFSET 0 0 0
                    }
                  }
                }
              }
            }
          }
        }
        JOINT LeftShoulder
        {
          OFFSET 3.65916 9.38468 -0.509514
          CHANNELS 3 Zrotation Xrotation Yrotation
          JOINT LeftArm
          {
            OFFSET 0 12.3089 0
            CHANNELS 3 Zrotation Xrotation Yrotation
            JOINT LeftArmRoll
            {
              OFFSET 0 6.21375 0
              CHANNELS 3 Zrotation Xrotation Yrotation
              JOINT LeftForeArm
              {
                OFFSET 0 18.0985 0
                CHANNELS 3 Zrotation Xrotation Yrotation
                JOINT LeftForeArmRoll
                {
                  OFFSET 0 6.97279 0
                  CHANNELS 3 Zrotation Xrotation Yrotation
                  JOINT LeftHand
                  {
                    OFFSET 0 13.9929 0
                    CHANNELS 3 Zrotation Xrotation Yrotation
                    End Site
                    {
                      OFFSET 0 0 0
                    }
                  }
                }
              }
            }
          }
        }
      }
    }
  }
  JOINT RightUpLeg
  {
    OFFSET -5.53515 -1.015 -0.851454
    CHANNELS 3 Zrotation Xrotation Yrotation
    JOINT RightUpLegRoll
    {
      OFFSET 0 16.4075 0
      CHANNELS 3 Zrotation Xrotation Yrotation
      JOINT RightLeg
      {
        OFFSET 0 -20.3181 0
        CHANNELS 3 Zrotation Xrotation Yrotation
        JOINT RightLegRoll
        {
          OFFSET 0 20.3846 0
          CHANNELS 3 Zrotation Xrotation Yrotation
          JOINT RightFoot
          {
            OFFSET 0 16.9668 0
            CHANNELS 3 Zrotation Xrotation Yrotation
            JOINT RightToeBase
            {
              OFFSET 0 14.1834 0
              CHANNELS 3 Zrotation Xrotation Yrotation
              End Site
              {
                OFFSET 0.0060118 6.8689 -0.791746
              }
            }
          }
        }
      }
    }
  }
  JOINT LeftUpLeg
  {
    OFFSET 5.53515 -1.015 -0.851454
    CHANNELS 3 Zrotation Xrotation Yrotation
    JOINT LeftUpLegRoll
    {
      OFFSET 0 16.4076 0
      CHANNELS 3 Zrotation Xrotation Yrotation
      JOINT LeftLeg
      {
        OFFSET 0 20.3181 0
        CHANNELS 3 Zrotation Xrotation Yrotation
        JOINT LeftLegRoll
        {
          OFFSET 0 20.5731 0
          CHANNELS 3 Zrotation Xrotation Yrotation
          JOINT LeftFoot
          {
            OFFSET 0 16.7783 0
            CHANNELS 3 Zrotation Xrotation Yrotation
            JOINT LeftToeBase
            {
              OFFSET 0 14.1834 0
              CHANNELS 3 Zrotation Xrotation Yrotation
              End Site
              {
                OFFSET -0.0269423 6.8689 -0.791746
              }
            }
          }
        }
      }
    }
  }
}
MOTION
Frames: 5
Frame Time: 0.00208333
49.1058 48.9835 -7.81309 -1.57033 -6.32033 -3.45118 -0.383411 1.16059 -0.000714748 -0.765512 6.32368 0.0539426 -0.767854 7.9687 0.0669621 12.0962 3.06132 -0.71904 -9.60908 10.147 2.24662 76.4357 -1.95452 -2.80145 111.14 40.3948 -30.3301 3.18055e-015 9.54166e-015 -0 24.8836 46.822 -12.3008 3.1958e-006 -2.44361e-005 -3 8.02896 -4.95147 0.697676 -60.8276 -13.6743 8.48854 -127.212 37.6335 29.6678 -6.84636e-006 -1.63843e-006 6.41556e-007 -18.6238 43.2529 9.0174 2.03251e-006 -1.11716e-005 3.00001 -8.02887 -4.951 -0.697491 -144.012 80.1433 -37.5131 180 1.52578e-005 179.359 -169.216 77.3066 170.186 -1.95888e-006 -6.39151e-006 0.758173 -10.2278 62.0022 16.2234 8.1362 25.2327 -3.48761 -157.173 82.7511 -18.7345 4.54188e-006 -4.6773e-006 -0.907101 31.7015 -83.5562 30.22 -3.99093e-006 -2.56277e-006 -1.17035 13.9845 65.2526 -17.6934 -8.1342 25.2334 3.48517 
49.1109 48.9775 -7.81255 -1.56884 -6.324 -3.44568 -0.383324 1.15895 -0.00129647 -0.766063 6.32042 0.0507 -0.768367 7.96544 0.0637229 12.0889 3.08177 -0.718293 -9.6081 10.1486 2.2478 76.4522 -1.93372 -2.79402 111.105 40.3846 -30.2981 1.11319e-014 0 3.18055e-015 24.8801 46.823 -12.2999 3.1958e-006 -2.44361e-005 -3 8.02896 -4.95147 0.697676 -60.8297 -13.6719 8.48697 -127.207 37.6369 29.6502 -6.84636e-006 -1.63843e-006 6.41556e-007 -18.6227 43.21 9.00638 2.03251e-006 -1.11716e-005 3.00001 -8.02887 -4.951 -0.697491 -144.064 80.1464 -37.4617 180 1.52578e-005 179.359 -169.209 77.3095 170.179 -1.95888e-006 -6.39151e-006 0.758173 -10.2256 61.9989 16.2216 8.1362 25.2327 -3.48761 -157.238 82.7525 -18.6734 4.54188e-006 -4.6773e-006 -0.907101 31.7127 -83.5576 30.2302 -3.99093e-006 -2.56277e-006 -1.17036 13.9882 65.2546 -17.6931 -8.1342 25.2334 3.48517 
49.1025 48.9676 -7.81068 -1.56725 -6.32804 -3.43978 -0.383231 1.15731 -0.00189471 -0.766639 6.31716 0.0473118 -0.768903 7.96217 0.060338 12.0814 3.1032 -0.717889 -9.60707 10.1504 2.24872 76.4694 -1.91225 -2.78637 111.069 40.374 -30.2648 -7.95139e-015 1.27222e-014 -3.18055e-015 24.8766 46.8235 -12.2987 3.1958e-006 -2.44361e-005 -3 8.02896 -4.95147 0.697676 -60.8318 -13.6694 8.48532 -127.203 37.6402 29.6321 -6.84636e-006 -1.63843e-006 6.41556e-007 -18.6216 43.1655 8.99503 2.03251e-006 -1.11716e-005 3.00001 -8.02887 -4.951 -0.697491 -144.12 80.1495 -37.4064 180 1.52578e-005 179.359 -169.202 77.3126 170.171 -1.95888e-006 -6.39151e-006 0.758173 -10.2233 61.9953 16.2197 8.1362 25.2327 -3.48761 -157.307 82.7537 -18.6076 4.54188e-006 -4.6773e-006 -0.907101 31.7244 -83.559 30.2407 -3.99093e-006 -2.56277e-006 -1.17039 13.9921 65.2568 -17.6928 -8.1342 25.2334 3.48517 
49.1063 48.9707 -7.80359 -1.56559 -6.33234 -3.4336 -0.383134 1.15567 -0.00250453 -0.767233 6.3139 0.0438217 -0.769456 7.95891 0.0568512 12.0739 3.12532 -0.717723 -9.60601 10.1522 2.24946 76.4872 -1.89032 -2.77857 111.031 40.3631 -30.2306 -7.95139e-015 3.18055e-015 -0 24.8732 46.8238 -12.2975 3.1958e-006 -2.44361e-005 -3 8.02896 -4.95147 0.697676 -60.834 -13.6668 8.48362 -127.198 37.6435 29.6136 -6.84636e-006 -1.63843e-006 6.41556e-007 -18.6206 43.1201 8.98345 2.03251e-006 -1.11716e-005 3.00001 -8.02887 -4.951 -0.697491 -144.179 80.1526 -37.3485 180 1.52578e-005 179.359 -169.195 77.3158 170.164 -1.95888e-006 -6.39151e-006 0.758173 -10.2209 61.9915 16.2177 8.1362 25.2327 -3.48761 -157.38 82.755 -18.5386 4.54188e-006 -4.6773e-006 -0.907101 31.7364 -83.5605 30.2517 -3.99093e-006 -2.56277e-006 -1.17042 13.9961 65.2591 -17.6925 -8.1342 25.2334 3.48517 
49.1103 48.9757 -7.80654 -1.56389 -6.33678 -3.42726 -0.383034 1.15404 -0.00312095 -0.767837 6.31064 0.0402734 -0.770019 7.95565 0.0533062 12.0664 3.14782 -0.717695 -9.60492 10.1541 2.2501 76.5052 -1.86813 -2.77068 110.993 40.352 -30.1959 9.54166e-015 6.36111e-015 9.54166e-015 24.8698 46.8239 -12.2963 3.1958e-006 -2.44361e-005 -3 8.02896 -4.95147 0.697676 -60.8362 -13.6642 8.48189 -127.193 37.6468 29.5949 -6.84636e-006 -1.63843e-006 6.41556e-007 -18.6195 43.074 8.97175 2.03251e-006 -1.11716e-005 3.00001 -8.02887 -4.951 -0.697491 -144.24 80.1557 -37.289 180 1.52578e-005 179.359 -169.187 77.319 170.156 -1.95888e-006 -6.39151e-006 0.758173 -10.2184 61.9877 16.2156 8.1362 25.2327 -3.48761 -157.454 82.7561 -18.4678 4.54188e-006 -4.6773e-006 -0.907101 31.7486 -83.5619 30.2628 -3.99093e-006 -2.56277e-006 -1.17045 14.0003 65.2614 -17.6922 -8.1342 25.2334 3.48517 
